<svg width="23" height="23" viewBox="0 0 23 23" fill="none" xmlns="http://www.w3.org/2000/svg">
<path d="M22.73 21.46L2.77 1.5L2 0.73L1.27 0L0 1.27L4.39 5.66L6.6 10.32L5.25 12.77C5.09 13.05 5 13.38 5 13.73C5 14.83 5.9 15.73 7 15.73H14.46L15.84 17.11C15.4966 17.3562 15.2402 17.7049 15.1075 18.106C14.9749 18.5072 14.9729 18.9401 15.1018 19.3424C15.2307 19.7447 15.484 20.0958 15.825 20.3452C16.1661 20.5945 16.5775 20.7292 17 20.73C17.67 20.73 18.26 20.4 18.62 19.89L21.46 22.73L22.73 21.46ZM7.42 13.73C7.28 13.73 7.17 13.62 7.17 13.48L7.2 13.36L8.1 11.73H10.46L12.46 13.73H7.42ZM15.55 11.73C16.3 11.73 16.96 11.32 17.3 10.7L20.88 4.21C20.9625 4.05739 21.004 3.88598 21.0005 3.71253C20.9969 3.53908 20.9485 3.36951 20.8598 3.22039C20.7711 3.07127 20.6453 2.9477 20.4946 2.86175C20.3439 2.77579 20.1735 2.7304 20 2.73H6.54L15.55 11.73ZM7 16.73C5.9 16.73 5.01 17.63 5.01 18.73C5.01 19.83 5.9 20.73 7 20.73C8.1 20.73 9 19.83 9 18.73C9 17.63 8.1 16.73 7 16.73Z" fill="white"/>
</svg>
