<svg width="207" height="144" viewBox="0 0 207 144" fill="none" xmlns="http://www.w3.org/2000/svg">
<path d="M77.5 0C57.1667 33.3333 16.2 100.3 15 101.5L87 101L98.5 81.5L90 68L78.5 86H43.5L77 30L121.121 101H192.5L131 0.5L108.5 37.5L117.5 52.5L131 30L166 86H130L77.5 0Z" fill="url(#paint0_linear_482_3)"/>
<path d="M2.96875 114.906H9.46875L14.9688 123.5L20.4688 114.906H27.125V137H19.9688V125L14.8125 133.734H13.2969L7.96875 125V137H2.96875V114.906ZM51.0781 137H44.3438L44.4844 135.922C44.526 135.589 44.5625 135.214 44.5938 134.797C44.625 134.38 44.651 133.948 44.6719 133.5C44.3594 134.115 43.9635 134.667 43.4844 135.156C43.0156 135.635 42.4948 136.047 41.9219 136.391C41.349 136.734 40.7396 136.995 40.0938 137.172C39.4479 137.359 38.7969 137.453 38.1406 137.453C37.3281 137.453 36.5573 137.318 35.8281 137.047C35.099 136.786 34.4531 136.37 33.8906 135.797C33.3385 135.214 32.8958 134.469 32.5625 133.562C32.2396 132.646 32.0781 131.542 32.0781 130.25V120.141H38.8281V129.625C38.8281 130.271 38.8854 130.812 39 131.25C39.125 131.688 39.2917 132.042 39.5 132.312C39.7083 132.583 39.9479 132.781 40.2188 132.906C40.4896 133.021 40.776 133.078 41.0781 133.078C41.4323 133.078 41.7865 133.005 42.1406 132.859C42.5052 132.714 42.8333 132.516 43.125 132.266C43.4271 132.016 43.6823 131.724 43.8906 131.391C44.1094 131.047 44.2552 130.682 44.3281 130.297V120.141H51.0781V137ZM55.9688 113H62.7188V137H55.9688V113ZM75.9844 137.453C75.0156 137.453 74.0885 137.333 73.2031 137.094C72.3177 136.865 71.5365 136.474 70.8594 135.922C70.1927 135.359 69.6562 134.62 69.25 133.703C68.8542 132.776 68.6562 131.625 68.6562 130.25V124.016H65.5469V123L72.9062 115H75.4062V120.141H80.4062C80.2812 120.766 80.1667 121.396 80.0625 122.031C79.9688 122.667 79.9167 123.328 79.9062 124.016H75.4062V130.188C75.4062 130.562 75.4323 130.927 75.4844 131.281C75.5469 131.625 75.6667 131.932 75.8438 132.203C76.0208 132.464 76.276 132.677 76.6094 132.844C76.9427 133 77.3854 133.078 77.9375 133.078C78.2917 133.078 78.6823 133.047 79.1094 132.984C79.5365 132.911 80.0208 132.781 80.5625 132.594L80.9375 136.641C80.2812 136.88 79.526 137.073 78.6719 137.219C77.8281 137.375 76.9323 137.453 75.9844 137.453ZM84.2812 114.906H90.7812L96.2812 123.5L101.781 114.906H108.438V137H101.281V125L96.125 133.734H94.6094L89.2812 125V137H84.2812V114.906ZM117.625 137.453C116.958 137.453 116.318 137.359 115.703 137.172C115.099 136.984 114.562 136.698 114.094 136.312C113.625 135.927 113.25 135.443 112.969 134.859C112.698 134.266 112.562 133.568 112.562 132.766C112.562 131.995 112.688 131.328 112.938 130.766C113.188 130.193 113.521 129.703 113.938 129.297C114.365 128.891 114.859 128.557 115.422 128.297C115.995 128.026 116.599 127.818 117.234 127.672C117.87 127.516 118.521 127.411 119.188 127.359C119.865 127.297 120.521 127.266 121.156 127.266C121.594 127.266 122.016 127.276 122.422 127.297C122.828 127.318 123.208 127.344 123.562 127.375C123.542 126.719 123.417 126.177 123.188 125.75C122.958 125.312 122.656 124.969 122.281 124.719C121.906 124.458 121.469 124.276 120.969 124.172C120.469 124.068 119.943 124.016 119.391 124.016C118.88 124.016 118.354 124.052 117.812 124.125C117.281 124.188 116.76 124.271 116.25 124.375C115.74 124.469 115.25 124.573 114.781 124.688C114.323 124.802 113.917 124.906 113.562 125V120.625C114.073 120.51 114.62 120.401 115.203 120.297C115.797 120.182 116.411 120.083 117.047 120C117.682 119.917 118.328 119.849 118.984 119.797C119.651 119.745 120.307 119.719 120.953 119.719C121.755 119.719 122.542 119.771 123.312 119.875C124.094 119.969 124.828 120.13 125.516 120.359C126.214 120.589 126.854 120.896 127.438 121.281C128.031 121.667 128.536 122.146 128.953 122.719C129.38 123.281 129.714 123.948 129.953 124.719C130.193 125.49 130.312 126.38 130.312 127.391V137H123.875V134.203C123.625 134.714 123.276 135.172 122.828 135.578C122.38 135.974 121.875 136.312 121.312 136.594C120.75 136.875 120.151 137.089 119.516 137.234C118.88 137.38 118.25 137.453 117.625 137.453ZM120.266 133.781C120.557 133.781 120.891 133.703 121.266 133.547C121.651 133.38 122.01 133.13 122.344 132.797C122.688 132.464 122.974 132.042 123.203 131.531C123.443 131.021 123.562 130.411 123.562 129.703H123.047C122.547 129.703 122.031 129.755 121.5 129.859C120.979 129.964 120.5 130.12 120.062 130.328C119.625 130.536 119.266 130.792 118.984 131.094C118.703 131.396 118.562 131.745 118.562 132.141C118.562 132.453 118.615 132.714 118.719 132.922C118.823 133.13 118.953 133.302 119.109 133.438C119.276 133.562 119.458 133.651 119.656 133.703C119.865 133.755 120.068 133.781 120.266 133.781ZM134.844 120.141H141.266C141.245 120.411 141.229 120.714 141.219 121.047C141.208 121.37 141.203 121.714 141.203 122.078C141.203 122.432 141.203 122.792 141.203 123.156C141.203 123.521 141.203 123.87 141.203 124.203C141.411 123.693 141.682 123.172 142.016 122.641C142.349 122.099 142.74 121.615 143.188 121.188C143.646 120.76 144.161 120.411 144.734 120.141C145.318 119.859 145.969 119.719 146.688 119.719C146.823 119.719 146.969 119.729 147.125 119.75C147.292 119.76 147.453 119.781 147.609 119.812C147.766 119.844 147.911 119.885 148.047 119.938C148.193 119.979 148.312 120.031 148.406 120.094L147.859 126.531C147.391 126.354 146.896 126.224 146.375 126.141C145.854 126.047 145.401 126 145.016 126C144.484 126 144.016 126.068 143.609 126.203C143.214 126.328 142.875 126.495 142.594 126.703C142.312 126.911 142.089 127.141 141.922 127.391C141.766 127.641 141.656 127.885 141.594 128.125V137H134.844V120.141ZM164.188 120.141H171.109L164.688 128.078L171.422 137H163.609L158.531 129.047L158 129.594V137H151.25V113H158V127.656L164.188 120.141ZM188 136.328C187.021 136.651 185.964 136.917 184.828 137.125C183.693 137.344 182.51 137.453 181.281 137.453C179.938 137.453 178.656 137.276 177.438 136.922C176.219 136.568 175.146 136.016 174.219 135.266C173.292 134.516 172.552 133.568 172 132.422C171.458 131.266 171.188 129.891 171.188 128.297C171.188 127.391 171.328 126.552 171.609 125.781C171.891 125 172.271 124.292 172.75 123.656C173.24 123.021 173.807 122.458 174.453 121.969C175.109 121.479 175.807 121.068 176.547 120.734C177.297 120.401 178.068 120.151 178.859 119.984C179.651 119.807 180.427 119.719 181.188 119.719C182.385 119.719 183.443 119.854 184.359 120.125C185.276 120.385 186.036 120.74 186.641 121.188C187.255 121.635 187.719 122.156 188.031 122.75C188.344 123.344 188.5 123.974 188.5 124.641C188.5 125.453 188.359 126.146 188.078 126.719C187.807 127.292 187.438 127.776 186.969 128.172C186.51 128.557 185.974 128.865 185.359 129.094C184.755 129.312 184.115 129.484 183.438 129.609C182.76 129.724 182.068 129.797 181.359 129.828C180.661 129.859 179.995 129.875 179.359 129.875C179.141 129.875 178.927 129.875 178.719 129.875C178.521 129.865 178.323 129.859 178.125 129.859C178.208 130.453 178.37 130.953 178.609 131.359C178.859 131.766 179.167 132.099 179.531 132.359C179.906 132.609 180.333 132.792 180.812 132.906C181.302 133.01 181.823 133.062 182.375 133.062C182.792 133.062 183.234 133.031 183.703 132.969C184.182 132.906 184.661 132.823 185.141 132.719C185.63 132.604 186.115 132.479 186.594 132.344C187.083 132.198 187.552 132.047 188 131.891V136.328ZM177.984 127.453C178.234 127.443 178.552 127.427 178.938 127.406C179.333 127.385 179.75 127.349 180.188 127.297C180.625 127.245 181.062 127.172 181.5 127.078C181.938 126.984 182.333 126.865 182.688 126.719C183.042 126.573 183.328 126.391 183.547 126.172C183.766 125.953 183.875 125.688 183.875 125.375C183.875 124.844 183.661 124.422 183.234 124.109C182.818 123.786 182.234 123.625 181.484 123.625C181.141 123.625 180.771 123.677 180.375 123.781C179.979 123.875 179.609 124.062 179.266 124.344C178.922 124.625 178.63 125.016 178.391 125.516C178.151 126.016 178.016 126.661 177.984 127.453ZM201.047 137.453C200.078 137.453 199.151 137.333 198.266 137.094C197.38 136.865 196.599 136.474 195.922 135.922C195.255 135.359 194.719 134.62 194.312 133.703C193.917 132.776 193.719 131.625 193.719 130.25V124.016H190.609V123L197.969 115H200.469V120.141H205.469C205.344 120.766 205.229 121.396 205.125 122.031C205.031 122.667 204.979 123.328 204.969 124.016H200.469V130.188C200.469 130.562 200.495 130.927 200.547 131.281C200.609 131.625 200.729 131.932 200.906 132.203C201.083 132.464 201.339 132.677 201.672 132.844C202.005 133 202.448 133.078 203 133.078C203.354 133.078 203.745 133.047 204.172 132.984C204.599 132.911 205.083 132.781 205.625 132.594L206 136.641C205.344 136.88 204.589 137.073 203.734 137.219C202.891 137.375 201.995 137.453 201.047 137.453Z" fill="#212121"/>
<defs>
<linearGradient id="paint0_linear_482_3" x1="79" y1="4.83173e-06" x2="193" y2="102" gradientUnits="userSpaceOnUse">
<stop stop-color="#430E99"/>
<stop offset="1" stop-color="#7410A4"/>
</linearGradient>
</defs>
</svg>
